<svg xmlns="http://www.w3.org/2000/svg" xmlns:xlink="http://www.w3.org/1999/xlink" width="500" zoomAndPan="magnify" viewBox="0 0 375 374.999991" height="500" preserveAspectRatio="xMidYMid meet" version="1.0"><defs><clipPath id="ab3efb7b76"><path d="M 0 11 L 364 11 L 364 374.710938 L 0 374.710938 Z M 0 11 " clip-rule="nonzero"/></clipPath></defs><g clip-path="url(#ab3efb7b76)"><path fill="#ffffff" d="M 0.894531 74.230469 L 15.835938 58.503906 C 24.597656 49.746094 39.335938 52.78125 39.335938 52.78125 L 83.082031 58.777344 L 105.242188 37.082031 C 116.910156 25.613281 127.453125 43.15625 122.867188 49.210938 L 111.488281 62.441406 L 158.609375 71.167969 L 174.597656 52.515625 C 191.6875 32.074219 204.402344 50.496094 196.691406 61.332031 L 186.363281 74.414062 L 257.148438 83.648438 C 318.011719 25.046875 342.863281 0.738281 358.875 15.183594 C 374.992188 29.714844 346.476562 58.6875 291.03125 115.832031 L 301.097656 188.800781 L 315.933594 176.4375 C 324.6875 169.136719 340.230469 180.839844 324.179688 196.070312 L 303.777344 215.316406 L 312.386719 263.078125 L 325.132812 253.273438 C 336.390625 244.300781 350.050781 256.167969 334.839844 272.429688 L 314.59375 292.839844 C 313.757812 293.464844 321.199219 334.734375 321.199219 334.734375 C 325.785156 354.960938 314.378906 362.347656 314.378906 362.347656 L 300.476562 374.480469 L 247.644531 225.171875 C 243.265625 212.039062 232.167969 197.769531 213.632812 199.460938 C 203.839844 200.503906 179.097656 217.21875 175.753906 221.1875 L 118.464844 276.308594 C 116.996094 277.347656 127.277344 347.960938 127.277344 347.960938 C 127.277344 350.042969 109.109375 373.875 109.109375 373.875 L 72.804688 309.230469 L 54.878906 317.570312 L 65.363281 301.238281 L 0 264.324219 L 24.511719 246.390625 C 36.179688 249.101562 97.375 255.984375 98.625 255.363281 C 98.625 255.363281 148.464844 205.90625 151.3125 202.921875 C 167.777344 185.613281 173.316406 179.136719 175.8125 170.59375 C 178.320312 162.03125 174.054688 149.492188 148.210938 133.621094 C 112.566406 111.722656 0.894531 74.230469 0.894531 74.230469 Z M 0.894531 74.230469 " fill-opacity="1" fill-rule="nonzero"/></g></svg>