<svg xmlns="http://www.w3.org/2000/svg" xmlns:xlink="http://www.w3.org/1999/xlink" width="500" zoomAndPan="magnify" viewBox="0 0 375 67.499998" height="90" preserveAspectRatio="xMidYMid meet" version="1.0"><defs><g/><clipPath id="b921d62eec"><path d="M 274.660156 16 L 311 16 L 311 52.3125 L 274.660156 52.3125 Z M 274.660156 16 " clip-rule="nonzero"/></clipPath><clipPath id="aa679c29b2"><path d="M 32.566406 15.152344 L 69.726562 15.152344 L 69.726562 52.3125 L 32.566406 52.3125 Z M 32.566406 15.152344 " clip-rule="nonzero"/></clipPath></defs><g fill="#ffffff" fill-opacity="1"><g transform="translate(1.652928, 51.452498)"><g><path d="M 20.632812 -10.582031 C 20.632812 -8.191406 18.613281 -6.222656 16.21875 -6.222656 L 11.167969 -6.222656 L 11.167969 -14.945312 L 16.21875 -14.945312 C 18.613281 -14.945312 20.632812 -12.921875 20.632812 -10.582031 Z M 18.136719 -25.6875 C 18.136719 -23.398438 16.21875 -21.484375 13.933594 -21.484375 L 11.167969 -21.484375 L 11.167969 -29.886719 L 13.933594 -29.886719 C 16.21875 -29.886719 18.136719 -28.027344 18.136719 -25.6875 Z M 28.769531 -10.371094 C 28.769531 -15.261719 25.472656 -18.507812 21.433594 -19.464844 C 24.144531 -20.6875 25.738281 -23.453125 25.738281 -27.121094 C 25.738281 -32.070312 21.804688 -36.164062 15.636719 -36.164062 L 3.191406 -36.164062 L 3.191406 0 L 17.816406 0 C 24.730469 0 28.769531 -4.148438 28.769531 -10.371094 Z M 28.769531 -10.371094 "/></g></g></g><g fill="#ffffff" fill-opacity="1"><g transform="translate(30.947414, 51.452498)"><g/></g></g><g fill="#ffffff" fill-opacity="1"><g transform="translate(44.242149, 51.452498)"><g/></g></g><g fill="#ffffff" fill-opacity="1"><g transform="translate(57.536883, 51.452498)"><g/></g></g><g fill="#ffffff" fill-opacity="1"><g transform="translate(70.825312, 51.452498)"><g><path d="M 29.304688 -12.285156 C 27.8125 -9.09375 24.199219 -6.914062 20.476562 -6.914062 C 14.625 -6.914062 9.945312 -11.914062 9.945312 -18.082031 C 9.945312 -24.199219 14.625 -29.25 20.476562 -29.25 C 24.144531 -29.25 27.761719 -27.230469 29.25 -23.984375 L 38.132812 -23.984375 C 35.683594 -31.378906 28.71875 -36.695312 20.476562 -36.695312 C 10.210938 -36.695312 1.863281 -28.347656 1.863281 -18.082031 C 1.863281 -7.816406 10.210938 0.53125 20.476562 0.53125 C 28.71875 0.53125 35.738281 -4.839844 38.183594 -12.285156 Z M 29.304688 -12.285156 "/></g></g></g><g fill="#ffffff" fill-opacity="1"><g transform="translate(110.337248, 51.452498)"><g><path d="M 11.167969 -16.167969 L 22.601562 0 L 33.34375 0 L 18.933594 -18.082031 L 32.8125 -36.164062 L 22.601562 -36.164062 L 11.167969 -19.996094 L 11.167969 -36.164062 L 3.191406 -36.164062 L 3.191406 0 L 11.167969 0 Z M 11.167969 -16.167969 "/></g></g></g><g fill="#ffffff" fill-opacity="1"><g transform="translate(143.148642, 51.452498)"><g><path d="M 24.144531 -7.234375 L 11.167969 -7.234375 L 11.167969 -14.519531 L 23.613281 -14.519531 L 23.613281 -21.75 L 11.167969 -21.75 L 11.167969 -28.929688 L 24.144531 -28.929688 L 24.144531 -36.164062 L 3.191406 -36.164062 L 3.191406 0 L 24.144531 0 Z M 24.144531 -7.234375 "/></g></g></g><g fill="#ffffff" fill-opacity="1"><g transform="translate(170.482611, 51.452498)"><g><path d="M 18.558594 -28.929688 L 28.878906 -28.929688 L 28.878906 -36.164062 L 0.265625 -36.164062 L 0.265625 -28.929688 L 10.582031 -28.929688 L 10.582031 0 L 18.558594 0 Z M 18.558594 -28.929688 "/></g></g></g><g fill="#ffffff" fill-opacity="1"><g transform="translate(199.624659, 51.452498)"><g/></g></g><g fill="#ffffff" fill-opacity="1"><g transform="translate(212.919394, 51.452498)"><g><path d="M 18.558594 -28.929688 L 28.878906 -28.929688 L 28.878906 -36.164062 L 0.265625 -36.164062 L 0.265625 -28.929688 L 10.582031 -28.929688 L 10.582031 0 L 18.558594 0 Z M 18.558594 -28.929688 "/></g></g></g><g fill="#ffffff" fill-opacity="1"><g transform="translate(242.061442, 51.452498)"><g><path d="M 11.167969 -12.921875 L 11.222656 -12.921875 L 19.835938 0 L 29.941406 0 L 19.570312 -13.296875 C 24.144531 -14.414062 27.8125 -18.453125 27.8125 -24.570312 C 27.8125 -31.429688 22.601562 -36.164062 16.753906 -36.164062 L 3.191406 -36.164062 L 3.191406 0 L 11.167969 0 Z M 15.421875 -29.886719 C 17.761719 -29.886719 20.210938 -27.867188 20.210938 -24.570312 C 20.210938 -21.113281 17.761719 -19.199219 15.421875 -19.199219 L 11.167969 -19.199219 L 11.167969 -29.886719 Z M 15.421875 -29.886719 "/></g></g></g><g fill="#ffffff" fill-opacity="1"><g transform="translate(271.36165, 51.452498)"><g/></g></g><g fill="#ffffff" fill-opacity="1"><g transform="translate(284.656385, 51.452498)"><g/></g></g><g fill="#ffffff" fill-opacity="1"><g transform="translate(297.951119, 51.452498)"><g/></g></g><g fill="#ffffff" fill-opacity="1"><g transform="translate(311.239552, 51.452498)"><g><path d="M 11.167969 -12.921875 L 16.753906 -12.921875 C 22.601562 -12.921875 27.8125 -17.230469 27.8125 -24.570312 C 27.8125 -31.429688 22.601562 -36.164062 16.753906 -36.164062 L 3.191406 -36.164062 L 3.191406 0 L 11.167969 0 Z M 15.421875 -29.886719 C 17.761719 -29.886719 20.210938 -27.867188 20.210938 -24.570312 C 20.210938 -21.113281 17.761719 -19.199219 15.421875 -19.199219 L 11.167969 -19.199219 L 11.167969 -29.886719 Z M 15.421875 -29.886719 "/></g></g></g><g fill="#ffffff" fill-opacity="1"><g transform="translate(339.849811, 51.452498)"><g><path d="M 17.230469 -5.636719 C 13.296875 -5.636719 9.890625 -7.605469 9.679688 -11.914062 L 1.59375 -11.914062 C 1.648438 -3.085938 8.933594 0.851562 16.910156 0.851562 C 24.304688 0.851562 31.910156 -2.285156 31.910156 -10.796875 C 31.910156 -24.570312 11.007812 -19.941406 11.007812 -26.378906 C 11.007812 -29.089844 14.144531 -30.152344 16.378906 -30.152344 C 20.367188 -30.152344 22.550781 -28.929688 22.972656 -25.15625 L 30.6875 -25.15625 C 30.421875 -33.398438 23.71875 -36.695312 16.273438 -36.695312 C 9.679688 -36.695312 2.765625 -33.183594 2.765625 -25.738281 C 2.765625 -12.390625 23.664062 -16.910156 23.664062 -9.890625 C 23.664062 -6.648438 19.730469 -5.636719 17.230469 -5.636719 Z M 17.230469 -5.636719 "/></g></g></g><g clip-path="url(#b921d62eec)"><path fill="#ffffff" d="M 274.75 22.480469 L 276.230469 20.917969 C 277.097656 20.046875 278.558594 20.347656 278.558594 20.347656 L 282.894531 20.945312 L 285.089844 18.789062 C 286.246094 17.652344 287.289062 19.394531 286.835938 19.996094 L 285.710938 21.308594 L 290.378906 22.175781 L 291.960938 20.324219 C 293.65625 18.292969 294.917969 20.121094 294.152344 21.199219 L 293.128906 22.496094 L 300.140625 23.414062 C 306.171875 17.597656 308.636719 15.183594 310.222656 16.617188 C 311.820312 18.058594 308.996094 20.9375 303.5 26.609375 L 304.496094 33.851562 L 305.96875 32.625 C 306.835938 31.902344 308.375 33.0625 306.785156 34.574219 L 304.761719 36.484375 L 305.617188 41.226562 L 306.878906 40.253906 C 307.996094 39.363281 309.347656 40.539062 307.839844 42.15625 L 305.835938 44.179688 C 305.753906 44.242188 306.488281 48.339844 306.488281 48.339844 C 306.945312 50.347656 305.8125 51.082031 305.8125 51.082031 L 304.4375 52.285156 L 299.199219 37.464844 C 298.765625 36.160156 297.667969 34.742188 295.832031 34.910156 C 294.859375 35.015625 292.410156 36.675781 292.078125 37.066406 L 286.398438 42.539062 C 286.253906 42.644531 287.273438 49.652344 287.273438 49.652344 C 287.273438 49.859375 285.472656 52.226562 285.472656 52.226562 L 281.875 45.808594 L 280.097656 46.636719 L 281.136719 45.015625 L 274.660156 41.351562 L 277.089844 39.570312 C 278.246094 39.839844 284.308594 40.523438 284.433594 40.460938 C 284.433594 40.460938 289.371094 35.550781 289.65625 35.253906 C 291.285156 33.535156 291.835938 32.894531 292.082031 32.046875 C 292.332031 31.195312 291.910156 29.949219 289.347656 28.375 C 285.816406 26.199219 274.75 22.480469 274.75 22.480469 Z M 274.75 22.480469 " fill-opacity="1" fill-rule="nonzero"/></g><g clip-path="url(#aa679c29b2)"><path fill="#ffffff" d="M 69.695312 15.152344 L 32.597656 15.152344 L 32.597656 17.800781 L 35.1875 17.800781 L 37.773438 48.464844 C 37.773438 48.464844 37.582031 52.3125 43.136719 52.3125 L 59.160156 52.3125 C 64.710938 52.3125 64.523438 48.464844 64.523438 48.464844 L 67.109375 17.800781 L 69.695312 17.800781 Z M 69.695312 15.152344 " fill-opacity="1" fill-rule="nonzero"/></g></svg>